HIERARCHY
ROOT Hips
{
    OFFSET   0.000000   0.000000   0.000000
    CHANNELS 6 Xposition Yposition Zposition Zrotation Xrotation Yrotation
    JOINT Chest
    {
        OFFSET   0.000000   8.007230   0.000000
        CHANNELS 3 Zrotation Xrotation Yrotation
        JOINT Chest2
        {
            OFFSET   0.000000  22.077100   0.000000
            CHANNELS 3 Zrotation Xrotation Yrotation
            JOINT Neck
            {
                OFFSET   0.000000  23.255100   0.000000
                CHANNELS 3 Zrotation Xrotation Yrotation
                JOINT Head
                {
                    OFFSET   0.000000  14.370100   1.956600
                    CHANNELS 3 Zrotation Xrotation Yrotation
                    End Site
                    {
                        OFFSET   0.000000  19.566000   0.000000
                    }
                }
            }
            JOINT LeftCollar
            {
                OFFSET   3.911900  19.017000  -0.467063
                CHANNELS 3 Zrotation Xrotation Yrotation
                JOINT LeftShoulder
                {
                    OFFSET  10.383700   0.000000   0.000000
                    CHANNELS 3 Zrotation Xrotation Yrotation
                    JOINT LeftElbow
                    {
                        OFFSET  26.662100   0.001193   0.000980
                        CHANNELS 3 Zrotation Xrotation Yrotation
                        JOINT LeftWrist
                        {
                            OFFSET  28.869000  -0.000059  -0.000082
                            CHANNELS 3 Zrotation Xrotation Yrotation
                            JOINT LeftFinger0
                            {
                                OFFSET   2.044650  -2.323450   3.252850
                                CHANNELS 3 Zrotation Xrotation Yrotation
                                JOINT LeftFinger01
                                {
                                    OFFSET   3.088130   0.000000   0.000000
                                    CHANNELS 3 Zrotation Xrotation Yrotation
                                    JOINT LeftFinger02
                                    {
                                        OFFSET   2.639460   0.000000   0.000000
                                        CHANNELS 3 Zrotation Xrotation Yrotation
                                        End Site
                                        {
                                            OFFSET   2.582190   0.000000   0.000000
                                        }
                                    }
                                }
                            }
                            JOINT LeftFinger1
                            {
                                OFFSET   8.364480   0.000000   3.252850
                                CHANNELS 3 Zrotation Xrotation Yrotation
                                JOINT LeftFinger11
                                {
                                    OFFSET   4.646930   0.000000   0.000000
                                    CHANNELS 3 Zrotation Xrotation Yrotation
                                    JOINT LeftFinger12
                                    {
                                        OFFSET   2.323470   0.000000   0.000000
                                        CHANNELS 3 Zrotation Xrotation Yrotation
                                        End Site
                                        {
                                            OFFSET   2.273050   0.000000   0.000000
                                        }
                                    }
                                }
                            }
                            JOINT LeftFinger2
                            {
                                OFFSET   8.364490   0.000016   1.078090
                                CHANNELS 3 Zrotation Xrotation Yrotation
                                JOINT LeftFinger21
                                {
                                    OFFSET   5.111610   0.000000   0.000000
                                    CHANNELS 3 Zrotation Xrotation Yrotation
                                    JOINT LeftFinger22
                                    {
                                        OFFSET   2.788150   0.000016   0.000000
                                        CHANNELS 3 Zrotation Xrotation Yrotation
                                        End Site
                                        {
                                            OFFSET   2.727660   0.000000   0.000000
                                        }
                                    }
                                }
                            }
                            JOINT LeftFinger3
                            {
                                OFFSET   7.899780   0.000015  -1.078090
                                CHANNELS 3 Zrotation Xrotation Yrotation
                                JOINT LeftFinger31
                                {
                                    OFFSET   4.646930   0.000000   0.000000
                                    CHANNELS 3 Zrotation Xrotation Yrotation
                                    JOINT LeftFinger32
                                    {
                                        OFFSET   2.323470   0.000000   0.000000
                                        CHANNELS 3 Zrotation Xrotation Yrotation
                                        End Site
                                        {
                                            OFFSET   2.273050   0.000000   0.000000
                                        }
                                    }
                                }
                            }
                            JOINT LeftFinger4
                            {
                                OFFSET   7.435090   0.000000  -3.252850
                                CHANNELS 3 Zrotation Xrotation Yrotation
                                JOINT LeftFinger41
                                {
                                    OFFSET   3.717550   0.000000   0.000000
                                    CHANNELS 3 Zrotation Xrotation Yrotation
                                    JOINT LeftFinger42
                                    {
                                        OFFSET   1.858770   0.000000   0.000000
                                        CHANNELS 3 Zrotation Xrotation Yrotation
                                        End Site
                                        {
                                            OFFSET   1.818440   0.000000   0.000000
                                        }
                                    }
                                }
                            }
                        }
                    }
                }
            }
            JOINT RightCollar
            {
                OFFSET  -3.911910  19.017000  -0.467062
                CHANNELS 3 Zrotation Xrotation Yrotation
                JOINT RightShoulder
                {
                    OFFSET -10.383700   0.000014   0.000000
                    CHANNELS 3 Zrotation Xrotation Yrotation
                    JOINT RightElbow
                    {
                        OFFSET -26.662100   0.001225   0.001091
                        CHANNELS 3 Zrotation Xrotation Yrotation
                        JOINT RightWrist
                        {
                            OFFSET -28.869000  -0.000020  -0.000085
                            CHANNELS 3 Zrotation Xrotation Yrotation
                            JOINT RightFinger0
                            {
                                OFFSET  -2.044650  -2.323490   3.252850
                                CHANNELS 3 Zrotation Xrotation Yrotation
                                JOINT RightFinger01
                                {
                                    OFFSET  -3.088130   0.000000   0.000000
                                    CHANNELS 3 Zrotation Xrotation Yrotation
                                    JOINT RightFinger02
                                    {
                                        OFFSET  -2.639460   0.000000   0.000000
                                        CHANNELS 3 Zrotation Xrotation Yrotation
                                        End Site
                                        {
                                            OFFSET  -2.582190   0.000000   0.000000
                                        }
                                    }
                                }
                            }
                            JOINT RightFinger1
                            {
                                OFFSET  -8.364480   0.000000   3.252850
                                CHANNELS 3 Zrotation Xrotation Yrotation
                                JOINT RightFinger11
                                {
                                    OFFSET  -4.646930   0.000000   0.000000
                                    CHANNELS 3 Zrotation Xrotation Yrotation
                                    JOINT RightFinger12
                                    {
                                        OFFSET  -2.323470   0.000000   0.000000
                                        CHANNELS 3 Zrotation Xrotation Yrotation
                                        End Site
                                        {
                                            OFFSET  -2.273050   0.000000   0.000000
                                        }
                                    }
                                }
                            }
                            JOINT RightFinger2
                            {
                                OFFSET  -8.364480   0.000000   1.078090
                                CHANNELS 3 Zrotation Xrotation Yrotation
                                JOINT RightFinger21
                                {
                                    OFFSET  -5.111620   0.000000   0.000000
                                    CHANNELS 3 Zrotation Xrotation Yrotation
                                    JOINT RightFinger22
                                    {
                                        OFFSET  -2.788160   0.000000   0.000000
                                        CHANNELS 3 Zrotation Xrotation Yrotation
                                        End Site
                                        {
                                            OFFSET  -2.727660   0.000000   0.000000
                                        }
                                    }
                                }
                            }
                            JOINT RightFinger3
                            {
                                OFFSET  -7.899780   0.000000  -1.078090
                                CHANNELS 3 Zrotation Xrotation Yrotation
                                JOINT RightFinger31
                                {
                                    OFFSET  -4.646930   0.000000   0.000000
                                    CHANNELS 3 Zrotation Xrotation Yrotation
                                    JOINT RightFinger32
                                    {
                                        OFFSET  -2.323470   0.000000   0.000000
                                        CHANNELS 3 Zrotation Xrotation Yrotation
                                        End Site
                                        {
                                            OFFSET  -2.273050   0.000000   0.000000
                                        }
                                    }
                                }
                            }
                            JOINT RightFinger4
                            {
                                OFFSET  -7.435090   0.000000  -3.252850
                                CHANNELS 3 Zrotation Xrotation Yrotation
                                JOINT RightFinger41
                                {
                                    OFFSET  -3.717550   0.000000   0.000000
                                    CHANNELS 3 Zrotation Xrotation Yrotation
                                    JOINT RightFinger42
                                    {
                                        OFFSET  -1.858760   0.000000   0.000000
                                        CHANNELS 3 Zrotation Xrotation Yrotation
                                        End Site
                                        {
                                            OFFSET  -1.818440   0.000000   0.000000
                                        }
                                    }
                                }
                            }
                        }
                    }
                }
            }
        }
    }
    JOINT LeftHip
    {
        OFFSET   9.783030   0.000000   0.000000
        CHANNELS 3 Zrotation Xrotation Yrotation
        JOINT LeftKnee
        {
            OFFSET   0.000063 -41.789100   0.000608
            CHANNELS 3 Zrotation Xrotation Yrotation
            JOINT LeftAnkle
            {
                OFFSET   0.000048 -41.133200  -0.000184
                CHANNELS 3 Zrotation Xrotation Yrotation
                JOINT LeftToe
                {
                    OFFSET   0.000000  -6.358960  14.674500
                    CHANNELS 3 Zrotation Xrotation Yrotation
                    End Site
                    {
                        OFFSET   0.000000   0.000000   3.913200
                    }
                }
            }
        }
    }
    JOINT RightHip
    {
        OFFSET  -9.783030   0.000000   0.000000
        CHANNELS 3 Zrotation Xrotation Yrotation
        JOINT RightKnee
        {
            OFFSET   0.000071 -41.789100   0.001239
            CHANNELS 3 Zrotation Xrotation Yrotation
            JOINT RightAnkle
            {
                OFFSET   0.000037 -41.133200  -0.000166
                CHANNELS 3 Zrotation Xrotation Yrotation
                JOINT RightToe
                {
                    OFFSET   0.000000  -6.358960  14.674500
                    CHANNELS 3 Zrotation Xrotation Yrotation
                    End Site
                    {
                        OFFSET   0.000000   0.000000   3.913200
                    }
                }
            }
        }
    }
}
MOTION
Frames: 5
Frame Time:   0.016667
 -2.438360  89.503900  -2.317050  -5.855350 -16.624000  -6.716940   1.175220   9.784740   1.046980   2.215420  19.587800   1.929870   6.665420  -0.807788   0.093990  10.959900  -1.571900  -9.653200  -1.140560  -8.884350  -3.867560 -10.765600  20.146800 -103.567000  38.541600 -14.982800 -84.963000  -6.606970  13.753800  -0.897702  37.485300  28.798400 -56.694800 -31.932800   0.000435   0.000423 -10.966400  -0.002192   0.001065  -2.919800   0.397711  -7.736350  -2.411080   0.006074  -0.003636  -1.687750   0.004287   0.002136  -5.485610   0.745678  -7.710780  -5.536020   0.012974   0.002520  -3.686990   0.008202   0.004434  -3.054110   0.415945  -7.735420  -3.082410   0.011750   0.003398  -2.052890   0.007562   0.007280  -5.159300   0.701455  -7.714890  -7.810150   0.002936   0.005536  -5.201560   0.001635   0.006345   8.133910  -8.885320  13.857900  17.079700  14.112300  79.174800 -31.117000 -20.571900  69.934000  -6.082380  11.082300  31.989700 -50.375400  32.189600  63.449200  11.440700   0.000859  -0.008192   0.720381   0.005257  -0.010101   1.090630   0.148370   7.724710   0.899907   0.000573  -0.003888   0.629936   0.006493  -0.002903   3.532860   0.451518   7.257570   3.560480   0.001681  -0.002723   2.371280   0.007769  -0.008746  -4.116490  -0.288929   3.996670   0.006373   0.004360  -0.000501   0.004236   0.005388  -0.004563   9.556430  -0.142943  -0.848196  14.334800   0.002244  -0.001594   9.546970   0.008939  -0.011420   4.008450  20.549000   1.808860   1.598990   0.131017   2.415140  -2.034300  -4.616270   2.916240  -0.000000   0.000000   0.000000   6.389540  17.462000  -5.704850  -1.509810   4.010210  -4.552730  -0.574877  -5.409120   2.693780  -0.000000   0.000000   0.000000
 -2.430860  89.504500  -2.330730  -5.844330 -16.641100  -6.697190   1.149320   9.827940   1.065410   2.158640  19.674100   1.971690   6.661010  -0.789253   0.091670  10.948600  -1.535810  -9.577280  -1.054510  -8.771480  -3.732000 -10.542400  20.132500 -103.577000  38.646500 -15.172200 -84.693100  -6.655300  13.707000  -0.695353  37.502400  28.855900 -56.534300 -31.995200   0.000483   0.000285 -10.997600  -0.002193   0.001032  -3.143910   0.421665  -7.610780  -2.595430   0.006111  -0.003769  -1.816800   0.004294   0.002088  -5.708760   0.763753  -7.584290  -5.759600   0.013106   0.002578  -3.835890   0.008310   0.004411  -3.266980   0.438130  -7.609890  -3.296340   0.011855   0.003467  -2.195360   0.007656   0.007301  -5.377720   0.719556  -7.588620  -8.138450   0.002979   0.005644  -5.420200   0.001792   0.006290   8.115930  -8.875090  13.823600  17.232500  14.284000  79.028000 -31.496100 -20.531700  69.736600  -6.210750  11.119300  31.885600 -50.373300  32.194800  63.444300  11.665800   0.000939  -0.008216   0.832908   0.005420  -0.010260   1.152740   0.153498   7.584110   0.950883   0.000515  -0.003916   0.665625   0.006481  -0.002911   3.637100   0.449686   7.039640   3.663990   0.001696  -0.002733   2.440210   0.007754  -0.008807  -3.895010  -0.260357   3.822670   0.006390   0.004387  -0.000449   0.004236   0.005435  -0.004571   9.683040  -0.173909  -1.017790  14.525400   0.002279  -0.001589   9.673930   0.009097  -0.011508   3.999000  20.532300   1.791390   1.598530   0.162119   2.406710  -2.033920  -4.615690   2.923100  -0.000000   0.000000  -0.000000   6.386440  17.460300  -5.706960  -1.514100   4.018360  -4.597870  -0.553543  -5.406200   2.733910   0.000000   0.000000  -0.000000
 -2.420650  89.504900  -2.345210  -5.830740 -16.672500  -6.668790   1.124720   9.880160   1.072030   2.106520  19.778300   1.989060   6.635900  -0.766687   0.088830  10.903400  -1.492620  -9.465090  -0.963865  -8.706530  -3.598720 -10.332000  20.139400 -103.524000  38.742700 -15.406500 -84.413000  -6.749360  13.718500  -0.328431  37.644800  29.025400 -56.364900 -31.961000   0.000502   0.000266 -10.980500  -0.002212   0.001002  -3.383790   0.452497  -7.531140  -2.793330   0.006132  -0.003901  -1.955330   0.004285   0.002044  -5.959130   0.792932  -7.503370  -6.011600   0.013260   0.002630  -4.003720   0.008391   0.004388  -3.504570   0.468243  -7.530170  -3.535860   0.011971   0.003532  -2.354890   0.007704   0.007319  -5.592590   0.743524  -7.507980  -8.462670   0.005017   0.005753  -5.636130   0.003167   0.006231   8.108790  -8.871290  13.818700  17.317900  14.671800  78.812000 -32.225800 -20.526900  69.282600  -6.270500  11.139000  31.856400 -50.353800  32.061900  63.406200  11.916900   0.003814  -0.008227   0.958461   0.005586  -0.010428   1.268380   0.167837   7.433080   1.047830   0.003331  -0.003931   0.733488   0.006462  -0.002916   3.784180   0.455618   6.819070   3.812830   0.003027  -0.002740   2.539350   0.007729  -0.008867  -3.638950  -0.223773   3.620380   0.006390   0.004412  -0.000393   0.004248   0.005489  -0.004576   9.796460  -0.208416  -1.205290  14.701600   0.002295  -0.001585   9.791250   0.009259  -0.011596   3.983370  20.543400   1.768150   1.598520   0.159673   2.404780  -2.033510  -4.593240   2.921710  -0.000000   0.000000   0.000000   6.386380  17.470700  -5.725850  -1.524640   4.028000  -4.639500  -0.533991  -5.403720   2.769360  -0.000000   0.000000  -0.000000
 -2.406320  89.505100  -2.361940  -5.819780 -16.711500  -6.642170   1.101440   9.938390   1.079180   2.056920  19.894500   2.007240   6.587050  -0.737139   0.085015  10.826000  -1.436200  -9.336220  -0.891662  -8.647750  -3.455150 -10.267400  20.236700 -103.343000  38.753800 -15.508800 -84.128000  -6.867550  13.794100   0.138919  37.803900  29.264400 -56.221600 -31.926800   0.000519   0.000254 -10.963400  -0.002237   0.000972  -3.663620   0.490617  -7.497620  -3.024540   0.006197  -0.004031  -2.117180   0.004273   0.001998  -6.261470   0.832557  -7.467420  -6.316740   0.013350   0.002679  -4.206950   0.008533   0.004368  -3.785450   0.506313  -7.496570  -3.819510   0.012076   0.003601  -2.543790   0.007849   0.007337  -5.835140   0.774851  -7.473830  -8.829870   0.009298   0.005861  -5.880690   0.005835   0.006171   8.098930  -8.870590  13.813900  17.293800  15.178100  78.579400 -33.155500 -20.535800  68.664200  -6.414540  11.151600  31.794200 -50.339700  31.788700  63.195500  12.213600   0.008673  -0.008255   1.106820   0.005757  -0.010598   1.417150   0.185483   7.203180   1.172580   0.007870  -0.003975   0.820806   0.006450  -0.002928   3.965060   0.461614   6.528960   3.996050   0.006301  -0.002765   2.661380   0.007700  -0.008929  -3.315480  -0.178176   3.334120   0.006389   0.004437  -0.000339   0.004259   0.005546  -0.004580   9.862330  -0.259702  -1.500230  14.806500   0.002339  -0.001583   9.861150   0.009426  -0.011682   3.964000  20.569800   1.753840   1.598470   0.144276   2.403360  -2.030700  -4.551340   2.920250   0.000000   0.000000   0.000000   6.385150  17.486300  -5.747850  -1.535980   4.043230  -4.673770  -0.514574  -5.400540   2.798910  -0.000000   0.000000   0.000000
 -2.384080  89.503300  -2.382870  -5.814940 -16.754600  -6.624670   1.080350  10.002200   1.097410   2.009630  20.022200   2.047730   6.522450  -0.696037   0.079495  10.719100  -1.357570  -9.204710  -0.854238  -8.574400  -3.298230 -10.294100  20.448600 -103.010000  38.631400 -15.417300 -83.864700  -6.876720  13.947900   0.707648  37.962500  29.537700 -56.173600 -31.934500   0.000565   0.000193 -10.967200  -0.002251   0.000942  -3.998470   0.550709  -7.499600  -3.302150   0.008680  -0.004159  -2.311510   0.004265   0.001949  -6.643510   0.899945  -7.466340  -6.703440   0.013316   0.002724  -4.464500   0.008681   0.004349  -4.122100   0.567493  -7.498380  -4.160710   0.012158   0.003669  -2.771030   0.008245   0.007355  -6.115630   0.828677  -7.474490  -9.256320   0.016415   0.005966  -6.164710   0.010337   0.006114   8.088650  -8.877400  13.797600  17.258500  15.707900  78.317400 -34.072500 -20.570300  67.958000  -6.479810  10.826300  31.393700 -50.346700  31.558000  62.557600  12.526200   0.013416  -0.008303   1.263130   0.005935  -0.010762   1.540530   0.200148   6.836520   1.276420   0.011947  -0.005509   0.893501   0.006464  -0.003989   4.127240   0.460335   6.127720   4.160390   0.012807  -0.004840   2.770830   0.007660  -0.008994  -2.966470  -0.120052   2.927770   0.003194   0.004452  -0.000292  -0.030995   0.005602  -0.004586   9.859730  -0.332341  -1.978120  14.808900   0.007087  -0.007483   9.862750   0.009598  -0.011788   3.943320  20.612700   1.754610   1.598470   0.095299   2.398080  -2.024040  -4.501410   2.920600  -0.000000   0.000000  -0.000000   6.369770  17.495400  -5.753140  -1.540490   4.072140  -4.691470  -0.491496  -5.396850   2.810250  -0.000000   0.000000   0.000000
